G04 #@! TF.GenerationSoftware,KiCad,Pcbnew,8.0.6*
G04 #@! TF.CreationDate,2024-10-26T17:03:45+02:00*
G04 #@! TF.ProjectId,LED_shield,4c45445f-7368-4696-956c-642e6b696361,rev?*
G04 #@! TF.SameCoordinates,Original*
G04 #@! TF.FileFunction,Copper,L2,Bot*
G04 #@! TF.FilePolarity,Positive*
%FSLAX46Y46*%
G04 Gerber Fmt 4.6, Leading zero omitted, Abs format (unit mm)*
G04 Created by KiCad (PCBNEW 8.0.6) date 2024-10-26 17:03:45*
%MOMM*%
%LPD*%
G01*
G04 APERTURE LIST*
G04 #@! TA.AperFunction,ComponentPad*
%ADD10R,2.800000X2.800000*%
G04 #@! TD*
G04 #@! TA.AperFunction,ComponentPad*
%ADD11C,2.800000*%
G04 #@! TD*
G04 #@! TA.AperFunction,ComponentPad*
%ADD12R,1.700000X1.700000*%
G04 #@! TD*
G04 #@! TA.AperFunction,ComponentPad*
%ADD13O,1.700000X1.700000*%
G04 #@! TD*
G04 #@! TA.AperFunction,ComponentPad*
%ADD14R,1.905000X2.000000*%
G04 #@! TD*
G04 #@! TA.AperFunction,ComponentPad*
%ADD15O,1.905000X2.000000*%
G04 #@! TD*
G04 #@! TA.AperFunction,ComponentPad*
%ADD16C,1.600000*%
G04 #@! TD*
G04 #@! TA.AperFunction,ComponentPad*
%ADD17R,1.800000X1.800000*%
G04 #@! TD*
G04 #@! TA.AperFunction,ComponentPad*
%ADD18C,1.800000*%
G04 #@! TD*
G04 #@! TA.AperFunction,ComponentPad*
%ADD19O,2.400000X2.400000*%
G04 #@! TD*
G04 #@! TA.AperFunction,ComponentPad*
%ADD20C,2.400000*%
G04 #@! TD*
G04 APERTURE END LIST*
D10*
X124000000Y-40500000D03*
D11*
X129000000Y-40500000D03*
D10*
X142750000Y-40405000D03*
D11*
X137750000Y-40405000D03*
D12*
X147500000Y-53000000D03*
D13*
X147500000Y-55540000D03*
X147500000Y-58080000D03*
X147500000Y-60620000D03*
X147500000Y-63160000D03*
X147500000Y-65700000D03*
X147500000Y-68240000D03*
X147500000Y-70780000D03*
X147500000Y-73320000D03*
X147500000Y-75860000D03*
D14*
X137960000Y-82945000D03*
D15*
X140500000Y-82945000D03*
X143040000Y-82945000D03*
D12*
X119500000Y-53000000D03*
D13*
X119500000Y-55540000D03*
X119500000Y-58080000D03*
X119500000Y-60620000D03*
X119500000Y-63160000D03*
X119500000Y-65700000D03*
X119500000Y-68240000D03*
X119500000Y-70780000D03*
X119500000Y-73320000D03*
X119500000Y-75860000D03*
D16*
X142500000Y-75500000D03*
X142500000Y-70500000D03*
D17*
X131275000Y-69500000D03*
D18*
X128735000Y-69500000D03*
D16*
X137500000Y-75500000D03*
X137500000Y-70500000D03*
D19*
X142500000Y-58000000D03*
D20*
X127260000Y-58000000D03*
G04 #@! TA.AperFunction,Conductor*
G36*
X148943039Y-36019685D02*
G01*
X148988794Y-36072489D01*
X149000000Y-36124000D01*
X149000000Y-51811398D01*
X148980315Y-51878437D01*
X148927511Y-51924192D01*
X148858353Y-51934136D01*
X148794797Y-51905111D01*
X148776734Y-51885710D01*
X148707187Y-51792809D01*
X148592093Y-51706649D01*
X148592086Y-51706645D01*
X148457379Y-51656403D01*
X148457372Y-51656401D01*
X148397844Y-51650000D01*
X147750000Y-51650000D01*
X147750000Y-52566988D01*
X147692993Y-52534075D01*
X147565826Y-52500000D01*
X147434174Y-52500000D01*
X147307007Y-52534075D01*
X147250000Y-52566988D01*
X147250000Y-51650000D01*
X146602155Y-51650000D01*
X146542627Y-51656401D01*
X146542620Y-51656403D01*
X146407913Y-51706645D01*
X146407906Y-51706649D01*
X146292812Y-51792809D01*
X146292809Y-51792812D01*
X146206649Y-51907906D01*
X146206645Y-51907913D01*
X146156403Y-52042620D01*
X146156401Y-52042627D01*
X146150000Y-52102155D01*
X146150000Y-52750000D01*
X147066988Y-52750000D01*
X147034075Y-52807007D01*
X147000000Y-52934174D01*
X147000000Y-53065826D01*
X147034075Y-53192993D01*
X147066988Y-53250000D01*
X146150000Y-53250000D01*
X146150000Y-53897844D01*
X146156401Y-53957372D01*
X146156403Y-53957379D01*
X146206645Y-54092086D01*
X146206649Y-54092093D01*
X146292809Y-54207187D01*
X146292812Y-54207190D01*
X146407906Y-54293350D01*
X146407913Y-54293354D01*
X146527810Y-54338073D01*
X146583744Y-54379944D01*
X146608161Y-54445409D01*
X146593309Y-54513682D01*
X146575706Y-54538238D01*
X146424284Y-54702723D01*
X146424276Y-54702734D01*
X146301140Y-54891207D01*
X146210703Y-55097385D01*
X146155436Y-55315628D01*
X146155434Y-55315640D01*
X146136844Y-55539994D01*
X146136844Y-55540005D01*
X146155434Y-55764359D01*
X146155436Y-55764371D01*
X146210703Y-55982614D01*
X146301140Y-56188792D01*
X146424276Y-56377265D01*
X146424284Y-56377276D01*
X146552219Y-56516248D01*
X146576760Y-56542906D01*
X146754424Y-56681189D01*
X146754429Y-56681191D01*
X146754431Y-56681193D01*
X146790930Y-56700946D01*
X146840520Y-56750165D01*
X146855628Y-56818382D01*
X146831457Y-56883937D01*
X146790930Y-56919054D01*
X146754431Y-56938806D01*
X146754422Y-56938812D01*
X146576761Y-57077092D01*
X146576756Y-57077097D01*
X146424284Y-57242723D01*
X146424276Y-57242734D01*
X146301140Y-57431207D01*
X146210703Y-57637385D01*
X146155436Y-57855628D01*
X146155434Y-57855640D01*
X146136844Y-58079994D01*
X146136844Y-58080005D01*
X146155434Y-58304359D01*
X146155436Y-58304371D01*
X146210703Y-58522614D01*
X146301140Y-58728792D01*
X146424276Y-58917265D01*
X146424284Y-58917276D01*
X146576756Y-59082902D01*
X146576760Y-59082906D01*
X146754424Y-59221189D01*
X146754429Y-59221191D01*
X146754431Y-59221193D01*
X146790930Y-59240946D01*
X146840520Y-59290165D01*
X146855628Y-59358382D01*
X146831457Y-59423937D01*
X146790930Y-59459054D01*
X146754431Y-59478806D01*
X146754422Y-59478812D01*
X146576761Y-59617092D01*
X146576756Y-59617097D01*
X146424284Y-59782723D01*
X146424276Y-59782734D01*
X146301140Y-59971207D01*
X146210703Y-60177385D01*
X146155436Y-60395628D01*
X146155434Y-60395640D01*
X146136844Y-60619994D01*
X146136844Y-60620005D01*
X146155434Y-60844359D01*
X146155436Y-60844371D01*
X146210703Y-61062614D01*
X146301140Y-61268792D01*
X146424276Y-61457265D01*
X146424284Y-61457276D01*
X146576756Y-61622902D01*
X146576760Y-61622906D01*
X146754424Y-61761189D01*
X146754429Y-61761191D01*
X146754431Y-61761193D01*
X146790930Y-61780946D01*
X146840520Y-61830165D01*
X146855628Y-61898382D01*
X146831457Y-61963937D01*
X146790930Y-61999054D01*
X146754431Y-62018806D01*
X146754422Y-62018812D01*
X146576761Y-62157092D01*
X146576756Y-62157097D01*
X146424284Y-62322723D01*
X146424276Y-62322734D01*
X146301140Y-62511207D01*
X146210703Y-62717385D01*
X146155436Y-62935628D01*
X146155434Y-62935640D01*
X146136844Y-63159994D01*
X146136844Y-63160005D01*
X146155434Y-63384359D01*
X146155436Y-63384371D01*
X146210703Y-63602614D01*
X146301140Y-63808792D01*
X146424276Y-63997265D01*
X146424284Y-63997276D01*
X146576756Y-64162902D01*
X146576760Y-64162906D01*
X146754424Y-64301189D01*
X146754429Y-64301191D01*
X146754431Y-64301193D01*
X146790930Y-64320946D01*
X146840520Y-64370165D01*
X146855628Y-64438382D01*
X146831457Y-64503937D01*
X146790930Y-64539054D01*
X146754431Y-64558806D01*
X146754422Y-64558812D01*
X146576761Y-64697092D01*
X146576756Y-64697097D01*
X146424284Y-64862723D01*
X146424276Y-64862734D01*
X146301140Y-65051207D01*
X146210703Y-65257385D01*
X146155436Y-65475628D01*
X146155434Y-65475640D01*
X146136844Y-65699994D01*
X146136844Y-65700005D01*
X146155434Y-65924359D01*
X146155436Y-65924371D01*
X146210703Y-66142614D01*
X146301140Y-66348792D01*
X146424276Y-66537265D01*
X146424284Y-66537276D01*
X146576756Y-66702902D01*
X146576760Y-66702906D01*
X146754424Y-66841189D01*
X146754429Y-66841191D01*
X146754431Y-66841193D01*
X146790930Y-66860946D01*
X146840520Y-66910165D01*
X146855628Y-66978382D01*
X146831457Y-67043937D01*
X146790930Y-67079054D01*
X146754431Y-67098806D01*
X146754422Y-67098812D01*
X146576761Y-67237092D01*
X146576756Y-67237097D01*
X146424284Y-67402723D01*
X146424276Y-67402734D01*
X146301140Y-67591207D01*
X146210703Y-67797385D01*
X146155436Y-68015628D01*
X146155434Y-68015640D01*
X146136844Y-68239994D01*
X146136844Y-68240005D01*
X146155434Y-68464359D01*
X146155436Y-68464371D01*
X146210703Y-68682614D01*
X146301140Y-68888792D01*
X146424276Y-69077265D01*
X146424284Y-69077276D01*
X146576756Y-69242902D01*
X146576760Y-69242906D01*
X146754424Y-69381189D01*
X146754429Y-69381191D01*
X146754431Y-69381193D01*
X146790930Y-69400946D01*
X146840520Y-69450165D01*
X146855628Y-69518382D01*
X146831457Y-69583937D01*
X146790930Y-69619054D01*
X146754431Y-69638806D01*
X146754422Y-69638812D01*
X146576761Y-69777092D01*
X146576756Y-69777097D01*
X146424284Y-69942723D01*
X146424276Y-69942734D01*
X146301140Y-70131207D01*
X146210703Y-70337385D01*
X146155436Y-70555628D01*
X146155434Y-70555640D01*
X146136844Y-70779994D01*
X146136844Y-70780005D01*
X146155434Y-71004359D01*
X146155436Y-71004371D01*
X146210703Y-71222614D01*
X146301140Y-71428792D01*
X146424276Y-71617265D01*
X146424284Y-71617276D01*
X146524621Y-71726269D01*
X146576760Y-71782906D01*
X146754424Y-71921189D01*
X146754429Y-71921191D01*
X146754431Y-71921193D01*
X146790930Y-71940946D01*
X146840520Y-71990165D01*
X146855628Y-72058382D01*
X146831457Y-72123937D01*
X146790930Y-72159054D01*
X146754431Y-72178806D01*
X146754422Y-72178812D01*
X146576761Y-72317092D01*
X146576756Y-72317097D01*
X146424284Y-72482723D01*
X146424276Y-72482734D01*
X146301140Y-72671207D01*
X146210703Y-72877385D01*
X146155436Y-73095628D01*
X146155434Y-73095640D01*
X146136844Y-73319994D01*
X146136844Y-73320005D01*
X146155434Y-73544359D01*
X146155436Y-73544371D01*
X146210703Y-73762614D01*
X146301140Y-73968792D01*
X146424276Y-74157265D01*
X146424284Y-74157276D01*
X146524112Y-74265716D01*
X146576760Y-74322906D01*
X146754424Y-74461189D01*
X146754429Y-74461191D01*
X146754431Y-74461193D01*
X146790930Y-74480946D01*
X146840520Y-74530165D01*
X146855628Y-74598382D01*
X146831457Y-74663937D01*
X146790930Y-74699054D01*
X146754431Y-74718806D01*
X146754422Y-74718812D01*
X146576761Y-74857092D01*
X146576756Y-74857097D01*
X146424284Y-75022723D01*
X146424276Y-75022734D01*
X146301140Y-75211207D01*
X146210703Y-75417385D01*
X146155436Y-75635628D01*
X146155434Y-75635640D01*
X146136844Y-75859994D01*
X146136844Y-75860005D01*
X146155434Y-76084359D01*
X146155436Y-76084371D01*
X146210703Y-76302614D01*
X146301140Y-76508792D01*
X146424276Y-76697265D01*
X146424284Y-76697276D01*
X146531276Y-76813498D01*
X146576760Y-76862906D01*
X146754424Y-77001189D01*
X146754425Y-77001189D01*
X146754427Y-77001191D01*
X146881135Y-77069761D01*
X146952426Y-77108342D01*
X147165365Y-77181444D01*
X147387431Y-77218500D01*
X147612569Y-77218500D01*
X147834635Y-77181444D01*
X148047574Y-77108342D01*
X148245576Y-77001189D01*
X148423240Y-76862906D01*
X148575722Y-76697268D01*
X148698860Y-76508791D01*
X148762444Y-76363833D01*
X148807399Y-76310346D01*
X148874135Y-76289656D01*
X148941463Y-76308330D01*
X148988007Y-76360440D01*
X149000000Y-76413642D01*
X149000000Y-84876000D01*
X148980315Y-84943039D01*
X148927511Y-84988794D01*
X148876000Y-85000000D01*
X118124000Y-85000000D01*
X118056961Y-84980315D01*
X118011206Y-84927511D01*
X118000000Y-84876000D01*
X118000000Y-81893713D01*
X121149500Y-81893713D01*
X121149500Y-82106287D01*
X121182754Y-82316243D01*
X121244049Y-82504890D01*
X121248444Y-82518414D01*
X121344951Y-82707820D01*
X121469890Y-82879786D01*
X121620213Y-83030109D01*
X121792179Y-83155048D01*
X121792181Y-83155049D01*
X121792184Y-83155051D01*
X121981588Y-83251557D01*
X122183757Y-83317246D01*
X122393713Y-83350500D01*
X122393714Y-83350500D01*
X122606286Y-83350500D01*
X122606287Y-83350500D01*
X122816243Y-83317246D01*
X123018412Y-83251557D01*
X123207816Y-83155051D01*
X123229789Y-83139086D01*
X123379786Y-83030109D01*
X123379788Y-83030106D01*
X123379792Y-83030104D01*
X123530104Y-82879792D01*
X123530106Y-82879788D01*
X123530109Y-82879786D01*
X123655048Y-82707820D01*
X123655047Y-82707820D01*
X123655051Y-82707816D01*
X123751557Y-82518412D01*
X123817246Y-82316243D01*
X123850500Y-82106287D01*
X123850500Y-81896345D01*
X136499000Y-81896345D01*
X136499000Y-83993654D01*
X136505511Y-84054202D01*
X136505511Y-84054204D01*
X136546410Y-84163855D01*
X136556611Y-84191204D01*
X136644239Y-84308261D01*
X136761296Y-84395889D01*
X136898299Y-84446989D01*
X136925550Y-84449918D01*
X136958845Y-84453499D01*
X136958862Y-84453500D01*
X138961138Y-84453500D01*
X138961154Y-84453499D01*
X138988192Y-84450591D01*
X139021701Y-84446989D01*
X139158704Y-84395889D01*
X139275761Y-84308261D01*
X139363389Y-84191204D01*
X139373590Y-84163852D01*
X139415459Y-84107921D01*
X139480923Y-84083503D01*
X139549197Y-84098354D01*
X139562656Y-84106869D01*
X139738720Y-84234786D01*
X139942429Y-84338582D01*
X140159871Y-84409234D01*
X140250000Y-84423509D01*
X140250000Y-83435747D01*
X140287708Y-83457518D01*
X140427591Y-83495000D01*
X140572409Y-83495000D01*
X140712292Y-83457518D01*
X140750000Y-83435747D01*
X140750000Y-84423508D01*
X140840128Y-84409234D01*
X141057570Y-84338582D01*
X141261276Y-84234788D01*
X141446242Y-84100402D01*
X141607902Y-83938742D01*
X141607907Y-83938736D01*
X141664428Y-83860942D01*
X141719757Y-83818276D01*
X141789371Y-83812297D01*
X141851166Y-83844902D01*
X141865064Y-83860942D01*
X141921584Y-83938736D01*
X141925611Y-83944278D01*
X142088222Y-84106889D01*
X142274269Y-84242060D01*
X142371078Y-84291386D01*
X142479166Y-84346460D01*
X142479168Y-84346460D01*
X142479171Y-84346462D01*
X142596404Y-84384553D01*
X142697881Y-84417526D01*
X142925012Y-84453500D01*
X142925017Y-84453500D01*
X143154988Y-84453500D01*
X143382118Y-84417526D01*
X143448712Y-84395888D01*
X143600829Y-84346462D01*
X143805731Y-84242060D01*
X143991778Y-84106889D01*
X144154389Y-83944278D01*
X144289560Y-83758231D01*
X144393962Y-83553329D01*
X144465026Y-83334618D01*
X144473248Y-83282708D01*
X144501000Y-83107488D01*
X144501000Y-82782511D01*
X144465026Y-82555381D01*
X144393960Y-82336666D01*
X144289559Y-82131768D01*
X144271046Y-82106287D01*
X144154389Y-81945722D01*
X143991778Y-81783111D01*
X143805731Y-81647940D01*
X143600833Y-81543539D01*
X143382118Y-81472473D01*
X143154988Y-81436500D01*
X143154983Y-81436500D01*
X142925017Y-81436500D01*
X142925012Y-81436500D01*
X142697881Y-81472473D01*
X142479166Y-81543539D01*
X142274268Y-81647940D01*
X142088219Y-81783113D01*
X141925613Y-81945719D01*
X141925613Y-81945720D01*
X141925611Y-81945722D01*
X141865065Y-82029057D01*
X141865064Y-82029058D01*
X141809734Y-82071723D01*
X141740120Y-82077702D01*
X141678325Y-82045096D01*
X141664428Y-82029057D01*
X141607907Y-81951263D01*
X141607902Y-81951257D01*
X141446242Y-81789597D01*
X141261276Y-81655211D01*
X141057568Y-81551417D01*
X140840124Y-81480765D01*
X140750000Y-81466490D01*
X140750000Y-82454252D01*
X140712292Y-82432482D01*
X140572409Y-82395000D01*
X140427591Y-82395000D01*
X140287708Y-82432482D01*
X140250000Y-82454252D01*
X140250000Y-81466490D01*
X140249999Y-81466490D01*
X140159875Y-81480765D01*
X139942431Y-81551417D01*
X139738719Y-81655213D01*
X139562656Y-81783130D01*
X139496849Y-81806610D01*
X139428796Y-81790784D01*
X139380101Y-81740678D01*
X139373593Y-81726155D01*
X139363389Y-81698796D01*
X139275761Y-81581739D01*
X139158704Y-81494111D01*
X139125121Y-81481585D01*
X139021703Y-81443011D01*
X138961154Y-81436500D01*
X138961138Y-81436500D01*
X136958862Y-81436500D01*
X136958845Y-81436500D01*
X136898297Y-81443011D01*
X136898295Y-81443011D01*
X136761295Y-81494111D01*
X136644239Y-81581739D01*
X136556611Y-81698795D01*
X136505511Y-81835795D01*
X136505511Y-81835797D01*
X136499000Y-81896345D01*
X123850500Y-81896345D01*
X123850500Y-81893713D01*
X123817246Y-81683757D01*
X123751557Y-81481588D01*
X123655051Y-81292184D01*
X123655049Y-81292181D01*
X123655048Y-81292179D01*
X123530109Y-81120213D01*
X123379786Y-80969890D01*
X123207820Y-80844951D01*
X123018414Y-80748444D01*
X123018413Y-80748443D01*
X123018412Y-80748443D01*
X122816243Y-80682754D01*
X122816241Y-80682753D01*
X122816240Y-80682753D01*
X122654957Y-80657208D01*
X122606287Y-80649500D01*
X122393713Y-80649500D01*
X122345042Y-80657208D01*
X122183760Y-80682753D01*
X121981585Y-80748444D01*
X121792179Y-80844951D01*
X121620213Y-80969890D01*
X121469890Y-81120213D01*
X121344951Y-81292179D01*
X121248444Y-81481585D01*
X121182753Y-81683760D01*
X121165990Y-81789597D01*
X121149500Y-81893713D01*
X118000000Y-81893713D01*
X118000000Y-76413642D01*
X118019685Y-76346603D01*
X118072489Y-76300848D01*
X118141647Y-76290904D01*
X118205203Y-76319929D01*
X118237556Y-76363833D01*
X118301139Y-76508790D01*
X118424276Y-76697265D01*
X118424284Y-76697276D01*
X118531276Y-76813498D01*
X118576760Y-76862906D01*
X118754424Y-77001189D01*
X118754425Y-77001189D01*
X118754427Y-77001191D01*
X118881135Y-77069761D01*
X118952426Y-77108342D01*
X119165365Y-77181444D01*
X119387431Y-77218500D01*
X119612569Y-77218500D01*
X119834635Y-77181444D01*
X120047574Y-77108342D01*
X120245576Y-77001189D01*
X120423240Y-76862906D01*
X120575722Y-76697268D01*
X120698860Y-76508791D01*
X120789296Y-76302616D01*
X120844564Y-76084368D01*
X120844565Y-76084359D01*
X120863156Y-75860005D01*
X120863156Y-75859994D01*
X120844565Y-75635640D01*
X120844563Y-75635628D01*
X120841876Y-75625018D01*
X120810217Y-75499998D01*
X136186502Y-75499998D01*
X136186502Y-75500001D01*
X136206456Y-75728081D01*
X136206457Y-75728089D01*
X136265714Y-75949238D01*
X136265718Y-75949249D01*
X136362475Y-76156745D01*
X136362477Y-76156749D01*
X136493802Y-76344300D01*
X136655700Y-76506198D01*
X136843251Y-76637523D01*
X136968091Y-76695736D01*
X137050750Y-76734281D01*
X137050752Y-76734281D01*
X137050757Y-76734284D01*
X137271913Y-76793543D01*
X137434832Y-76807796D01*
X137499998Y-76813498D01*
X137500000Y-76813498D01*
X137500002Y-76813498D01*
X137557021Y-76808509D01*
X137728087Y-76793543D01*
X137949243Y-76734284D01*
X138156749Y-76637523D01*
X138344300Y-76506198D01*
X138506198Y-76344300D01*
X138637523Y-76156749D01*
X138734284Y-75949243D01*
X138793543Y-75728087D01*
X138813498Y-75500000D01*
X138813498Y-75499998D01*
X141186502Y-75499998D01*
X141186502Y-75500001D01*
X141206456Y-75728081D01*
X141206457Y-75728089D01*
X141265714Y-75949238D01*
X141265718Y-75949249D01*
X141362475Y-76156745D01*
X141362477Y-76156749D01*
X141493802Y-76344300D01*
X141655700Y-76506198D01*
X141843251Y-76637523D01*
X141968091Y-76695736D01*
X142050750Y-76734281D01*
X142050752Y-76734281D01*
X142050757Y-76734284D01*
X142271913Y-76793543D01*
X142434832Y-76807796D01*
X142499998Y-76813498D01*
X142500000Y-76813498D01*
X142500002Y-76813498D01*
X142557021Y-76808509D01*
X142728087Y-76793543D01*
X142949243Y-76734284D01*
X143156749Y-76637523D01*
X143344300Y-76506198D01*
X143506198Y-76344300D01*
X143637523Y-76156749D01*
X143734284Y-75949243D01*
X143793543Y-75728087D01*
X143813498Y-75500000D01*
X143793543Y-75271913D01*
X143734284Y-75050757D01*
X143637523Y-74843251D01*
X143506198Y-74655700D01*
X143344300Y-74493802D01*
X143156749Y-74362477D01*
X143156745Y-74362475D01*
X142949249Y-74265718D01*
X142949238Y-74265714D01*
X142728089Y-74206457D01*
X142728081Y-74206456D01*
X142500002Y-74186502D01*
X142499998Y-74186502D01*
X142271918Y-74206456D01*
X142271910Y-74206457D01*
X142050761Y-74265714D01*
X142050750Y-74265718D01*
X141843254Y-74362475D01*
X141843252Y-74362476D01*
X141843251Y-74362477D01*
X141655700Y-74493802D01*
X141655698Y-74493803D01*
X141655695Y-74493806D01*
X141493806Y-74655695D01*
X141493803Y-74655698D01*
X141493802Y-74655700D01*
X141411767Y-74772856D01*
X141362476Y-74843252D01*
X141362475Y-74843254D01*
X141265718Y-75050750D01*
X141265714Y-75050761D01*
X141206457Y-75271910D01*
X141206456Y-75271918D01*
X141186502Y-75499998D01*
X138813498Y-75499998D01*
X138793543Y-75271913D01*
X138734284Y-75050757D01*
X138637523Y-74843251D01*
X138506198Y-74655700D01*
X138344300Y-74493802D01*
X138156749Y-74362477D01*
X138156745Y-74362475D01*
X137949249Y-74265718D01*
X137949238Y-74265714D01*
X137728089Y-74206457D01*
X137728081Y-74206456D01*
X137500002Y-74186502D01*
X137499998Y-74186502D01*
X137271918Y-74206456D01*
X137271910Y-74206457D01*
X137050761Y-74265714D01*
X137050750Y-74265718D01*
X136843254Y-74362475D01*
X136843252Y-74362476D01*
X136843251Y-74362477D01*
X136655700Y-74493802D01*
X136655698Y-74493803D01*
X136655695Y-74493806D01*
X136493806Y-74655695D01*
X136493803Y-74655698D01*
X136493802Y-74655700D01*
X136411767Y-74772856D01*
X136362476Y-74843252D01*
X136362475Y-74843254D01*
X136265718Y-75050750D01*
X136265714Y-75050761D01*
X136206457Y-75271910D01*
X136206456Y-75271918D01*
X136186502Y-75499998D01*
X120810217Y-75499998D01*
X120789296Y-75417384D01*
X120698860Y-75211209D01*
X120575722Y-75022732D01*
X120575719Y-75022729D01*
X120575715Y-75022723D01*
X120423243Y-74857097D01*
X120423238Y-74857092D01*
X120245577Y-74718812D01*
X120245578Y-74718812D01*
X120245576Y-74718811D01*
X120209070Y-74699055D01*
X120159479Y-74649836D01*
X120144371Y-74581619D01*
X120168541Y-74516064D01*
X120209070Y-74480945D01*
X120209084Y-74480936D01*
X120245576Y-74461189D01*
X120423240Y-74322906D01*
X120575722Y-74157268D01*
X120698860Y-73968791D01*
X120789296Y-73762616D01*
X120844564Y-73544368D01*
X120863156Y-73320000D01*
X120844564Y-73095632D01*
X120789296Y-72877384D01*
X120698860Y-72671209D01*
X120575722Y-72482732D01*
X120575719Y-72482729D01*
X120575715Y-72482723D01*
X120423243Y-72317097D01*
X120423238Y-72317092D01*
X120245577Y-72178812D01*
X120245578Y-72178812D01*
X120245576Y-72178811D01*
X120209070Y-72159055D01*
X120159479Y-72109836D01*
X120144371Y-72041619D01*
X120168541Y-71976064D01*
X120209070Y-71940945D01*
X120209084Y-71940936D01*
X120245576Y-71921189D01*
X120423240Y-71782906D01*
X120575722Y-71617268D01*
X120698860Y-71428791D01*
X120789296Y-71222616D01*
X120844564Y-71004368D01*
X120849373Y-70946331D01*
X120863156Y-70780005D01*
X120863156Y-70779994D01*
X120844565Y-70555640D01*
X120844563Y-70555628D01*
X120832343Y-70507372D01*
X120789296Y-70337384D01*
X120698860Y-70131209D01*
X120696279Y-70127259D01*
X120637291Y-70036970D01*
X120575722Y-69942732D01*
X120575719Y-69942729D01*
X120575715Y-69942723D01*
X120423243Y-69777097D01*
X120423238Y-69777092D01*
X120245577Y-69638812D01*
X120245578Y-69638812D01*
X120245576Y-69638811D01*
X120209070Y-69619055D01*
X120159479Y-69569836D01*
X120144371Y-69501619D01*
X120144970Y-69499994D01*
X127321673Y-69499994D01*
X127321673Y-69500005D01*
X127340948Y-69732622D01*
X127340948Y-69732625D01*
X127340949Y-69732626D01*
X127352010Y-69776306D01*
X127398251Y-69958907D01*
X127492015Y-70172668D01*
X127619686Y-70368084D01*
X127771354Y-70532838D01*
X127777780Y-70539818D01*
X127961983Y-70683190D01*
X127961985Y-70683191D01*
X127961988Y-70683193D01*
X128042196Y-70726599D01*
X128167273Y-70794287D01*
X128242405Y-70820080D01*
X128388045Y-70870079D01*
X128388047Y-70870079D01*
X128388049Y-70870080D01*
X128618288Y-70908500D01*
X128618289Y-70908500D01*
X128851711Y-70908500D01*
X128851712Y-70908500D01*
X129081951Y-70870080D01*
X129302727Y-70794287D01*
X129508017Y-70683190D01*
X129692220Y-70539818D01*
X129698646Y-70532837D01*
X129758531Y-70496845D01*
X129828369Y-70498944D01*
X129885986Y-70538466D01*
X129906059Y-70573485D01*
X129931645Y-70642086D01*
X129931649Y-70642093D01*
X130017809Y-70757187D01*
X130017812Y-70757190D01*
X130132906Y-70843350D01*
X130132913Y-70843354D01*
X130267620Y-70893596D01*
X130267627Y-70893598D01*
X130327155Y-70899999D01*
X130327172Y-70900000D01*
X131025000Y-70900000D01*
X131025000Y-69875277D01*
X131101306Y-69919333D01*
X131215756Y-69950000D01*
X131334244Y-69950000D01*
X131448694Y-69919333D01*
X131525000Y-69875277D01*
X131525000Y-70900000D01*
X132222828Y-70900000D01*
X132222844Y-70899999D01*
X132282372Y-70893598D01*
X132282379Y-70893596D01*
X132417086Y-70843354D01*
X132417093Y-70843350D01*
X132532187Y-70757190D01*
X132532190Y-70757187D01*
X132618350Y-70642093D01*
X132618354Y-70642086D01*
X132668596Y-70507379D01*
X132668598Y-70507372D01*
X132669391Y-70499997D01*
X136195034Y-70499997D01*
X136195034Y-70500002D01*
X136214858Y-70726599D01*
X136214860Y-70726610D01*
X136273730Y-70946317D01*
X136273735Y-70946331D01*
X136369863Y-71152478D01*
X136420974Y-71225472D01*
X137100000Y-70546446D01*
X137100000Y-70552661D01*
X137127259Y-70654394D01*
X137179920Y-70745606D01*
X137254394Y-70820080D01*
X137345606Y-70872741D01*
X137447339Y-70900000D01*
X137453553Y-70900000D01*
X136774526Y-71579025D01*
X136847513Y-71630132D01*
X136847521Y-71630136D01*
X137053668Y-71726264D01*
X137053682Y-71726269D01*
X137273389Y-71785139D01*
X137273400Y-71785141D01*
X137499998Y-71804966D01*
X137500002Y-71804966D01*
X137726599Y-71785141D01*
X137726610Y-71785139D01*
X137946317Y-71726269D01*
X137946331Y-71726264D01*
X138152478Y-71630136D01*
X138225471Y-71579024D01*
X137546447Y-70900000D01*
X137552661Y-70900000D01*
X137654394Y-70872741D01*
X137745606Y-70820080D01*
X137820080Y-70745606D01*
X137872741Y-70654394D01*
X137900000Y-70552661D01*
X137900000Y-70546447D01*
X138579024Y-71225471D01*
X138630136Y-71152478D01*
X138726264Y-70946331D01*
X138726269Y-70946317D01*
X138785139Y-70726610D01*
X138785141Y-70726599D01*
X138804966Y-70500002D01*
X138804966Y-70499997D01*
X141195034Y-70499997D01*
X141195034Y-70500002D01*
X141214858Y-70726599D01*
X141214860Y-70726610D01*
X141273730Y-70946317D01*
X141273735Y-70946331D01*
X141369863Y-71152478D01*
X141420974Y-71225472D01*
X142100000Y-70546446D01*
X142100000Y-70552661D01*
X142127259Y-70654394D01*
X142179920Y-70745606D01*
X142254394Y-70820080D01*
X142345606Y-70872741D01*
X142447339Y-70900000D01*
X142453553Y-70900000D01*
X141774526Y-71579025D01*
X141847513Y-71630132D01*
X141847521Y-71630136D01*
X142053668Y-71726264D01*
X142053682Y-71726269D01*
X142273389Y-71785139D01*
X142273400Y-71785141D01*
X142499998Y-71804966D01*
X142500002Y-71804966D01*
X142726599Y-71785141D01*
X142726610Y-71785139D01*
X142946317Y-71726269D01*
X142946331Y-71726264D01*
X143152478Y-71630136D01*
X143225471Y-71579024D01*
X142546447Y-70900000D01*
X142552661Y-70900000D01*
X142654394Y-70872741D01*
X142745606Y-70820080D01*
X142820080Y-70745606D01*
X142872741Y-70654394D01*
X142900000Y-70552661D01*
X142900000Y-70546447D01*
X143579024Y-71225471D01*
X143630136Y-71152478D01*
X143726264Y-70946331D01*
X143726269Y-70946317D01*
X143785139Y-70726610D01*
X143785141Y-70726599D01*
X143804966Y-70500002D01*
X143804966Y-70499997D01*
X143785141Y-70273400D01*
X143785139Y-70273389D01*
X143726269Y-70053682D01*
X143726264Y-70053668D01*
X143630136Y-69847521D01*
X143630132Y-69847513D01*
X143579025Y-69774526D01*
X142900000Y-70453551D01*
X142900000Y-70447339D01*
X142872741Y-70345606D01*
X142820080Y-70254394D01*
X142745606Y-70179920D01*
X142654394Y-70127259D01*
X142552661Y-70100000D01*
X142546448Y-70100000D01*
X143225472Y-69420974D01*
X143152478Y-69369863D01*
X142946331Y-69273735D01*
X142946317Y-69273730D01*
X142726610Y-69214860D01*
X142726599Y-69214858D01*
X142500002Y-69195034D01*
X142499998Y-69195034D01*
X142273400Y-69214858D01*
X142273389Y-69214860D01*
X142053682Y-69273730D01*
X142053673Y-69273734D01*
X141847516Y-69369866D01*
X141847512Y-69369868D01*
X141774526Y-69420973D01*
X141774526Y-69420974D01*
X142453553Y-70100000D01*
X142447339Y-70100000D01*
X142345606Y-70127259D01*
X142254394Y-70179920D01*
X142179920Y-70254394D01*
X142127259Y-70345606D01*
X142100000Y-70447339D01*
X142100000Y-70453552D01*
X141420974Y-69774526D01*
X141420973Y-69774526D01*
X141369868Y-69847512D01*
X141369866Y-69847516D01*
X141273734Y-70053673D01*
X141273730Y-70053682D01*
X141214860Y-70273389D01*
X141214858Y-70273400D01*
X141195034Y-70499997D01*
X138804966Y-70499997D01*
X138785141Y-70273400D01*
X138785139Y-70273389D01*
X138726269Y-70053682D01*
X138726264Y-70053668D01*
X138630136Y-69847521D01*
X138630132Y-69847513D01*
X138579025Y-69774526D01*
X137900000Y-70453551D01*
X137900000Y-70447339D01*
X137872741Y-70345606D01*
X137820080Y-70254394D01*
X137745606Y-70179920D01*
X137654394Y-70127259D01*
X137552661Y-70100000D01*
X137546448Y-70100000D01*
X138225472Y-69420974D01*
X138152478Y-69369863D01*
X137946331Y-69273735D01*
X137946317Y-69273730D01*
X137726610Y-69214860D01*
X137726599Y-69214858D01*
X137500002Y-69195034D01*
X137499998Y-69195034D01*
X137273400Y-69214858D01*
X137273389Y-69214860D01*
X137053682Y-69273730D01*
X137053673Y-69273734D01*
X136847516Y-69369866D01*
X136847512Y-69369868D01*
X136774526Y-69420973D01*
X136774526Y-69420974D01*
X137453553Y-70100000D01*
X137447339Y-70100000D01*
X137345606Y-70127259D01*
X137254394Y-70179920D01*
X137179920Y-70254394D01*
X137127259Y-70345606D01*
X137100000Y-70447339D01*
X137100000Y-70453552D01*
X136420973Y-69774526D01*
X136369868Y-69847512D01*
X136369866Y-69847516D01*
X136273734Y-70053673D01*
X136273730Y-70053682D01*
X136214860Y-70273389D01*
X136214858Y-70273400D01*
X136195034Y-70499997D01*
X132669391Y-70499997D01*
X132674999Y-70447844D01*
X132675000Y-70447827D01*
X132675000Y-69750000D01*
X131650278Y-69750000D01*
X131694333Y-69673694D01*
X131725000Y-69559244D01*
X131725000Y-69440756D01*
X131694333Y-69326306D01*
X131650278Y-69250000D01*
X132675000Y-69250000D01*
X132675000Y-68552172D01*
X132674999Y-68552155D01*
X132668598Y-68492627D01*
X132668596Y-68492620D01*
X132618354Y-68357913D01*
X132618350Y-68357906D01*
X132532190Y-68242812D01*
X132532187Y-68242809D01*
X132417093Y-68156649D01*
X132417086Y-68156645D01*
X132282379Y-68106403D01*
X132282372Y-68106401D01*
X132222844Y-68100000D01*
X131525000Y-68100000D01*
X131525000Y-69124722D01*
X131448694Y-69080667D01*
X131334244Y-69050000D01*
X131215756Y-69050000D01*
X131101306Y-69080667D01*
X131025000Y-69124722D01*
X131025000Y-68100000D01*
X130327155Y-68100000D01*
X130267627Y-68106401D01*
X130267620Y-68106403D01*
X130132913Y-68156645D01*
X130132906Y-68156649D01*
X130017812Y-68242809D01*
X130017809Y-68242812D01*
X129931649Y-68357906D01*
X129931645Y-68357913D01*
X129906059Y-68426514D01*
X129864188Y-68482448D01*
X129798723Y-68506865D01*
X129730450Y-68492013D01*
X129698649Y-68467165D01*
X129692224Y-68460186D01*
X129692222Y-68460184D01*
X129692220Y-68460182D01*
X129508017Y-68316810D01*
X129508015Y-68316809D01*
X129508014Y-68316808D01*
X129508011Y-68316806D01*
X129302733Y-68205716D01*
X129302730Y-68205715D01*
X129302727Y-68205713D01*
X129302721Y-68205711D01*
X129302719Y-68205710D01*
X129081954Y-68129920D01*
X128902650Y-68100000D01*
X128851712Y-68091500D01*
X128618288Y-68091500D01*
X128572240Y-68099184D01*
X128388045Y-68129920D01*
X128167280Y-68205710D01*
X128167266Y-68205716D01*
X127961988Y-68316806D01*
X127961985Y-68316808D01*
X127777781Y-68460181D01*
X127777776Y-68460185D01*
X127619686Y-68631915D01*
X127492015Y-68827331D01*
X127398251Y-69041092D01*
X127340948Y-69267377D01*
X127321673Y-69499994D01*
X120144970Y-69499994D01*
X120168541Y-69436064D01*
X120209070Y-69400945D01*
X120209084Y-69400936D01*
X120245576Y-69381189D01*
X120423240Y-69242906D01*
X120575722Y-69077268D01*
X120698860Y-68888791D01*
X120789296Y-68682616D01*
X120844564Y-68464368D01*
X120847701Y-68426514D01*
X120863156Y-68240005D01*
X120863156Y-68239994D01*
X120844565Y-68015640D01*
X120844563Y-68015628D01*
X120841876Y-68005018D01*
X120789296Y-67797384D01*
X120698860Y-67591209D01*
X120575722Y-67402732D01*
X120575719Y-67402729D01*
X120575715Y-67402723D01*
X120423243Y-67237097D01*
X120423238Y-67237092D01*
X120245577Y-67098812D01*
X120245578Y-67098812D01*
X120245576Y-67098811D01*
X120209070Y-67079055D01*
X120159479Y-67029836D01*
X120144371Y-66961619D01*
X120168541Y-66896064D01*
X120209070Y-66860945D01*
X120209084Y-66860936D01*
X120245576Y-66841189D01*
X120423240Y-66702906D01*
X120575722Y-66537268D01*
X120698860Y-66348791D01*
X120789296Y-66142616D01*
X120844564Y-65924368D01*
X120863156Y-65700000D01*
X120844564Y-65475632D01*
X120789296Y-65257384D01*
X120698860Y-65051209D01*
X120575722Y-64862732D01*
X120575719Y-64862729D01*
X120575715Y-64862723D01*
X120423243Y-64697097D01*
X120423238Y-64697092D01*
X120245577Y-64558812D01*
X120245578Y-64558812D01*
X120245576Y-64558811D01*
X120209070Y-64539055D01*
X120159479Y-64489836D01*
X120144371Y-64421619D01*
X120168541Y-64356064D01*
X120209070Y-64320945D01*
X120209084Y-64320936D01*
X120245576Y-64301189D01*
X120423240Y-64162906D01*
X120575722Y-63997268D01*
X120698860Y-63808791D01*
X120789296Y-63602616D01*
X120844564Y-63384368D01*
X120863156Y-63160000D01*
X120844564Y-62935632D01*
X120789296Y-62717384D01*
X120698860Y-62511209D01*
X120575722Y-62322732D01*
X120575719Y-62322729D01*
X120575715Y-62322723D01*
X120423243Y-62157097D01*
X120423238Y-62157092D01*
X120245577Y-62018812D01*
X120245578Y-62018812D01*
X120245576Y-62018811D01*
X120209070Y-61999055D01*
X120159479Y-61949836D01*
X120144371Y-61881619D01*
X120168541Y-61816064D01*
X120209070Y-61780945D01*
X120209084Y-61780936D01*
X120245576Y-61761189D01*
X120423240Y-61622906D01*
X120575722Y-61457268D01*
X120698860Y-61268791D01*
X120789296Y-61062616D01*
X120844564Y-60844368D01*
X120863156Y-60620000D01*
X120844564Y-60395632D01*
X120789296Y-60177384D01*
X120698860Y-59971209D01*
X120575722Y-59782732D01*
X120575719Y-59782729D01*
X120575715Y-59782723D01*
X120423243Y-59617097D01*
X120423238Y-59617092D01*
X120251932Y-59483758D01*
X120245576Y-59478811D01*
X120209070Y-59459055D01*
X120159479Y-59409836D01*
X120144371Y-59341619D01*
X120168541Y-59276064D01*
X120209070Y-59240945D01*
X120209084Y-59240936D01*
X120245576Y-59221189D01*
X120423240Y-59082906D01*
X120531661Y-58965131D01*
X120575715Y-58917276D01*
X120575716Y-58917274D01*
X120575722Y-58917268D01*
X120698860Y-58728791D01*
X120789296Y-58522616D01*
X120844564Y-58304368D01*
X120848626Y-58255348D01*
X120863156Y-58080005D01*
X120863156Y-58079994D01*
X120856527Y-57999995D01*
X125546709Y-57999995D01*
X125546709Y-58000004D01*
X125565843Y-58255343D01*
X125565844Y-58255348D01*
X125622822Y-58504987D01*
X125622824Y-58504996D01*
X125622826Y-58505001D01*
X125716378Y-58743369D01*
X125844413Y-58965131D01*
X125938332Y-59082902D01*
X126004072Y-59165338D01*
X126138605Y-59290165D01*
X126191781Y-59339505D01*
X126403355Y-59483754D01*
X126403360Y-59483756D01*
X126403361Y-59483757D01*
X126403362Y-59483758D01*
X126525890Y-59542764D01*
X126634061Y-59594856D01*
X126634062Y-59594856D01*
X126634065Y-59594858D01*
X126878757Y-59670335D01*
X126878758Y-59670335D01*
X126878761Y-59670336D01*
X127131958Y-59708499D01*
X127131963Y-59708499D01*
X127131966Y-59708500D01*
X127131967Y-59708500D01*
X127388033Y-59708500D01*
X127388034Y-59708500D01*
X127388041Y-59708499D01*
X127641238Y-59670336D01*
X127641239Y-59670335D01*
X127641243Y-59670335D01*
X127885935Y-59594858D01*
X128116646Y-59483754D01*
X128328219Y-59339505D01*
X128515931Y-59165334D01*
X128675587Y-58965131D01*
X128803622Y-58743369D01*
X128897174Y-58505001D01*
X128954155Y-58255353D01*
X128954156Y-58255343D01*
X128973291Y-58000004D01*
X128973291Y-57999995D01*
X140786709Y-57999995D01*
X140786709Y-58000004D01*
X140805843Y-58255343D01*
X140805844Y-58255348D01*
X140862822Y-58504987D01*
X140862824Y-58504996D01*
X140862826Y-58505001D01*
X140956378Y-58743369D01*
X141084413Y-58965131D01*
X141178332Y-59082902D01*
X141244072Y-59165338D01*
X141378605Y-59290165D01*
X141431781Y-59339505D01*
X141643355Y-59483754D01*
X141643360Y-59483756D01*
X141643361Y-59483757D01*
X141643362Y-59483758D01*
X141765890Y-59542764D01*
X141874061Y-59594856D01*
X141874062Y-59594856D01*
X141874065Y-59594858D01*
X142118757Y-59670335D01*
X142118758Y-59670335D01*
X142118761Y-59670336D01*
X142371958Y-59708499D01*
X142371963Y-59708499D01*
X142371966Y-59708500D01*
X142371967Y-59708500D01*
X142628033Y-59708500D01*
X142628034Y-59708500D01*
X142628041Y-59708499D01*
X142881238Y-59670336D01*
X142881239Y-59670335D01*
X142881243Y-59670335D01*
X143125935Y-59594858D01*
X143356646Y-59483754D01*
X143568219Y-59339505D01*
X143755931Y-59165334D01*
X143915587Y-58965131D01*
X144043622Y-58743369D01*
X144137174Y-58505001D01*
X144194155Y-58255353D01*
X144194156Y-58255343D01*
X144213291Y-58000004D01*
X144213291Y-57999995D01*
X144194156Y-57744656D01*
X144194155Y-57744651D01*
X144194155Y-57744647D01*
X144137174Y-57494999D01*
X144043622Y-57256631D01*
X143915587Y-57034869D01*
X143755931Y-56834666D01*
X143755930Y-56834665D01*
X143755927Y-56834661D01*
X143590526Y-56681193D01*
X143568219Y-56660495D01*
X143356646Y-56516246D01*
X143356645Y-56516245D01*
X143356638Y-56516241D01*
X143125940Y-56405144D01*
X143125921Y-56405137D01*
X142881248Y-56329666D01*
X142881238Y-56329663D01*
X142628041Y-56291500D01*
X142628034Y-56291500D01*
X142371966Y-56291500D01*
X142371958Y-56291500D01*
X142118761Y-56329663D01*
X142118755Y-56329665D01*
X141874061Y-56405143D01*
X141643362Y-56516241D01*
X141643361Y-56516242D01*
X141431780Y-56660495D01*
X141244072Y-56834661D01*
X141084413Y-57034869D01*
X140956378Y-57256630D01*
X140862828Y-57494993D01*
X140862822Y-57495012D01*
X140805844Y-57744651D01*
X140805843Y-57744656D01*
X140786709Y-57999995D01*
X128973291Y-57999995D01*
X128954156Y-57744656D01*
X128954155Y-57744651D01*
X128954155Y-57744647D01*
X128897174Y-57494999D01*
X128803622Y-57256631D01*
X128675587Y-57034869D01*
X128515931Y-56834666D01*
X128515930Y-56834665D01*
X128515927Y-56834661D01*
X128350526Y-56681193D01*
X128328219Y-56660495D01*
X128116646Y-56516246D01*
X128116645Y-56516245D01*
X128116638Y-56516241D01*
X127885940Y-56405144D01*
X127885921Y-56405137D01*
X127641248Y-56329666D01*
X127641238Y-56329663D01*
X127388041Y-56291500D01*
X127388034Y-56291500D01*
X127131966Y-56291500D01*
X127131958Y-56291500D01*
X126878761Y-56329663D01*
X126878755Y-56329665D01*
X126634061Y-56405143D01*
X126403362Y-56516241D01*
X126403361Y-56516242D01*
X126191780Y-56660495D01*
X126004072Y-56834661D01*
X125844413Y-57034869D01*
X125716378Y-57256630D01*
X125622828Y-57494993D01*
X125622822Y-57495012D01*
X125565844Y-57744651D01*
X125565843Y-57744656D01*
X125546709Y-57999995D01*
X120856527Y-57999995D01*
X120844565Y-57855640D01*
X120844563Y-57855628D01*
X120816459Y-57744647D01*
X120789296Y-57637384D01*
X120698860Y-57431209D01*
X120575722Y-57242732D01*
X120575719Y-57242729D01*
X120575715Y-57242723D01*
X120423243Y-57077097D01*
X120423238Y-57077092D01*
X120245577Y-56938812D01*
X120245578Y-56938812D01*
X120245576Y-56938811D01*
X120209070Y-56919055D01*
X120159479Y-56869836D01*
X120144371Y-56801619D01*
X120168541Y-56736064D01*
X120209070Y-56700945D01*
X120209084Y-56700936D01*
X120245576Y-56681189D01*
X120423240Y-56542906D01*
X120575722Y-56377268D01*
X120698860Y-56188791D01*
X120789296Y-55982616D01*
X120844564Y-55764368D01*
X120863156Y-55540000D01*
X120844564Y-55315632D01*
X120789296Y-55097384D01*
X120698860Y-54891209D01*
X120575722Y-54702732D01*
X120575719Y-54702729D01*
X120575715Y-54702723D01*
X120430510Y-54544991D01*
X120399587Y-54482337D01*
X120407447Y-54412911D01*
X120451594Y-54358755D01*
X120478405Y-54344827D01*
X120558584Y-54314920D01*
X120596204Y-54300889D01*
X120713261Y-54213261D01*
X120800889Y-54096204D01*
X120851989Y-53959201D01*
X120855591Y-53925692D01*
X120858499Y-53898654D01*
X120858500Y-53898637D01*
X120858500Y-52101362D01*
X120858499Y-52101345D01*
X120855157Y-52070270D01*
X120851989Y-52040799D01*
X120800889Y-51903796D01*
X120713261Y-51786739D01*
X120596204Y-51699111D01*
X120459203Y-51648011D01*
X120398654Y-51641500D01*
X120398638Y-51641500D01*
X118601362Y-51641500D01*
X118601345Y-51641500D01*
X118540797Y-51648011D01*
X118540795Y-51648011D01*
X118403795Y-51699111D01*
X118393726Y-51706649D01*
X118286739Y-51786739D01*
X118286738Y-51786740D01*
X118286737Y-51786741D01*
X118223266Y-51871527D01*
X118167333Y-51913398D01*
X118097641Y-51918382D01*
X118036318Y-51884896D01*
X118002834Y-51823573D01*
X118000000Y-51797216D01*
X118000000Y-48393713D01*
X143149500Y-48393713D01*
X143149500Y-48606286D01*
X143182753Y-48816239D01*
X143248444Y-49018414D01*
X143344951Y-49207820D01*
X143469890Y-49379786D01*
X143620213Y-49530109D01*
X143792179Y-49655048D01*
X143792181Y-49655049D01*
X143792184Y-49655051D01*
X143981588Y-49751557D01*
X144183757Y-49817246D01*
X144393713Y-49850500D01*
X144393714Y-49850500D01*
X144606286Y-49850500D01*
X144606287Y-49850500D01*
X144816243Y-49817246D01*
X145018412Y-49751557D01*
X145207816Y-49655051D01*
X145229789Y-49639086D01*
X145379786Y-49530109D01*
X145379788Y-49530106D01*
X145379792Y-49530104D01*
X145530104Y-49379792D01*
X145530106Y-49379788D01*
X145530109Y-49379786D01*
X145655048Y-49207820D01*
X145655047Y-49207820D01*
X145655051Y-49207816D01*
X145751557Y-49018412D01*
X145817246Y-48816243D01*
X145850500Y-48606287D01*
X145850500Y-48393713D01*
X145817246Y-48183757D01*
X145751557Y-47981588D01*
X145655051Y-47792184D01*
X145655049Y-47792181D01*
X145655048Y-47792179D01*
X145530109Y-47620213D01*
X145379786Y-47469890D01*
X145207820Y-47344951D01*
X145018414Y-47248444D01*
X145018413Y-47248443D01*
X145018412Y-47248443D01*
X144816243Y-47182754D01*
X144816241Y-47182753D01*
X144816240Y-47182753D01*
X144654957Y-47157208D01*
X144606287Y-47149500D01*
X144393713Y-47149500D01*
X144345042Y-47157208D01*
X144183760Y-47182753D01*
X143981585Y-47248444D01*
X143792179Y-47344951D01*
X143620213Y-47469890D01*
X143469890Y-47620213D01*
X143344951Y-47792179D01*
X143248444Y-47981585D01*
X143182753Y-48183760D01*
X143149500Y-48393713D01*
X118000000Y-48393713D01*
X118000000Y-39051345D01*
X122091500Y-39051345D01*
X122091500Y-41948654D01*
X122098011Y-42009202D01*
X122098011Y-42009204D01*
X122145944Y-42137712D01*
X122149111Y-42146204D01*
X122236739Y-42263261D01*
X122353796Y-42350889D01*
X122490799Y-42401989D01*
X122517439Y-42404853D01*
X122551345Y-42408499D01*
X122551362Y-42408500D01*
X125448638Y-42408500D01*
X125448654Y-42408499D01*
X125475692Y-42405591D01*
X125509201Y-42401989D01*
X125646204Y-42350889D01*
X125763261Y-42263261D01*
X125850889Y-42146204D01*
X125901989Y-42009201D01*
X125905591Y-41975692D01*
X125908499Y-41948654D01*
X125908500Y-41948637D01*
X125908500Y-40499998D01*
X127095147Y-40499998D01*
X127095147Y-40500001D01*
X127114536Y-40771090D01*
X127114537Y-40771097D01*
X127172305Y-41036654D01*
X127267285Y-41291306D01*
X127267287Y-41291310D01*
X127397532Y-41529835D01*
X127397537Y-41529843D01*
X127491321Y-41655123D01*
X127491322Y-41655124D01*
X128398958Y-40747488D01*
X128423978Y-40807890D01*
X128495112Y-40914351D01*
X128585649Y-41004888D01*
X128692110Y-41076022D01*
X128752511Y-41101041D01*
X127844874Y-42008676D01*
X127970163Y-42102466D01*
X127970164Y-42102467D01*
X128208689Y-42232712D01*
X128208693Y-42232714D01*
X128463345Y-42327694D01*
X128728902Y-42385462D01*
X128728909Y-42385463D01*
X128999999Y-42404853D01*
X129000001Y-42404853D01*
X129271090Y-42385463D01*
X129271097Y-42385462D01*
X129536654Y-42327694D01*
X129791306Y-42232714D01*
X129791310Y-42232712D01*
X130029844Y-42102462D01*
X130155123Y-42008677D01*
X130155124Y-42008676D01*
X129247488Y-41101041D01*
X129307890Y-41076022D01*
X129414351Y-41004888D01*
X129504888Y-40914351D01*
X129576022Y-40807890D01*
X129601041Y-40747489D01*
X130508676Y-41655124D01*
X130508677Y-41655123D01*
X130602462Y-41529844D01*
X130732712Y-41291310D01*
X130732714Y-41291306D01*
X130827694Y-41036654D01*
X130885462Y-40771097D01*
X130885463Y-40771090D01*
X130904853Y-40500001D01*
X130904853Y-40499998D01*
X130898058Y-40404998D01*
X135845147Y-40404998D01*
X135845147Y-40405001D01*
X135864536Y-40676090D01*
X135864537Y-40676097D01*
X135922305Y-40941654D01*
X136017285Y-41196306D01*
X136017287Y-41196310D01*
X136147532Y-41434835D01*
X136147537Y-41434843D01*
X136241321Y-41560123D01*
X136241322Y-41560124D01*
X137148958Y-40652488D01*
X137173978Y-40712890D01*
X137245112Y-40819351D01*
X137335649Y-40909888D01*
X137442110Y-40981022D01*
X137502511Y-41006041D01*
X136594874Y-41913676D01*
X136720163Y-42007466D01*
X136720164Y-42007467D01*
X136958689Y-42137712D01*
X136958693Y-42137714D01*
X137213345Y-42232694D01*
X137478902Y-42290462D01*
X137478909Y-42290463D01*
X137749999Y-42309853D01*
X137750001Y-42309853D01*
X138021090Y-42290463D01*
X138021097Y-42290462D01*
X138286654Y-42232694D01*
X138541306Y-42137714D01*
X138541310Y-42137712D01*
X138779844Y-42007462D01*
X138905123Y-41913677D01*
X138905124Y-41913676D01*
X137997488Y-41006041D01*
X138057890Y-40981022D01*
X138164351Y-40909888D01*
X138254888Y-40819351D01*
X138326022Y-40712890D01*
X138351041Y-40652489D01*
X139258676Y-41560124D01*
X139258677Y-41560123D01*
X139352462Y-41434844D01*
X139482712Y-41196310D01*
X139482714Y-41196306D01*
X139577694Y-40941654D01*
X139635462Y-40676097D01*
X139635463Y-40676090D01*
X139654853Y-40405001D01*
X139654853Y-40404998D01*
X139635463Y-40133909D01*
X139635462Y-40133902D01*
X139577694Y-39868345D01*
X139482714Y-39613693D01*
X139482712Y-39613689D01*
X139352467Y-39375164D01*
X139352466Y-39375163D01*
X139258676Y-39249874D01*
X138351041Y-40157510D01*
X138326022Y-40097110D01*
X138254888Y-39990649D01*
X138164351Y-39900112D01*
X138057890Y-39828978D01*
X137997488Y-39803958D01*
X138845101Y-38956345D01*
X140841500Y-38956345D01*
X140841500Y-41853654D01*
X140848011Y-41914202D01*
X140848011Y-41914204D01*
X140899111Y-42051204D01*
X140986739Y-42168261D01*
X141103796Y-42255889D01*
X141240799Y-42306989D01*
X141267439Y-42309853D01*
X141301345Y-42313499D01*
X141301362Y-42313500D01*
X144198638Y-42313500D01*
X144198654Y-42313499D01*
X144225692Y-42310591D01*
X144259201Y-42306989D01*
X144396204Y-42255889D01*
X144513261Y-42168261D01*
X144600889Y-42051204D01*
X144651989Y-41914201D01*
X144655591Y-41880692D01*
X144658499Y-41853654D01*
X144658500Y-41853637D01*
X144658500Y-38956362D01*
X144658499Y-38956345D01*
X144655157Y-38925270D01*
X144651989Y-38895799D01*
X144600889Y-38758796D01*
X144513261Y-38641739D01*
X144396204Y-38554111D01*
X144259203Y-38503011D01*
X144198654Y-38496500D01*
X144198638Y-38496500D01*
X141301362Y-38496500D01*
X141301345Y-38496500D01*
X141240797Y-38503011D01*
X141240795Y-38503011D01*
X141103795Y-38554111D01*
X140986739Y-38641739D01*
X140899111Y-38758795D01*
X140848011Y-38895795D01*
X140848011Y-38895797D01*
X140841500Y-38956345D01*
X138845101Y-38956345D01*
X138905124Y-38896322D01*
X138905123Y-38896321D01*
X138779843Y-38802537D01*
X138779835Y-38802532D01*
X138541310Y-38672287D01*
X138541306Y-38672285D01*
X138286654Y-38577305D01*
X138021097Y-38519537D01*
X138021090Y-38519536D01*
X137750001Y-38500147D01*
X137749999Y-38500147D01*
X137478909Y-38519536D01*
X137478902Y-38519537D01*
X137213345Y-38577305D01*
X136958693Y-38672285D01*
X136958689Y-38672287D01*
X136720164Y-38802532D01*
X136720156Y-38802537D01*
X136594875Y-38896321D01*
X136594874Y-38896322D01*
X137502511Y-39803958D01*
X137442110Y-39828978D01*
X137335649Y-39900112D01*
X137245112Y-39990649D01*
X137173978Y-40097110D01*
X137148958Y-40157510D01*
X136241322Y-39249874D01*
X136241321Y-39249875D01*
X136147537Y-39375156D01*
X136147532Y-39375164D01*
X136017287Y-39613689D01*
X136017285Y-39613693D01*
X135922305Y-39868345D01*
X135864537Y-40133902D01*
X135864536Y-40133909D01*
X135845147Y-40404998D01*
X130898058Y-40404998D01*
X130885463Y-40228909D01*
X130885462Y-40228902D01*
X130827694Y-39963345D01*
X130732714Y-39708693D01*
X130732712Y-39708689D01*
X130602467Y-39470164D01*
X130602466Y-39470163D01*
X130508676Y-39344874D01*
X129601041Y-40252510D01*
X129576022Y-40192110D01*
X129504888Y-40085649D01*
X129414351Y-39995112D01*
X129307890Y-39923978D01*
X129247488Y-39898958D01*
X130155124Y-38991322D01*
X130155123Y-38991321D01*
X130029843Y-38897537D01*
X130029835Y-38897532D01*
X129791310Y-38767287D01*
X129791306Y-38767285D01*
X129536654Y-38672305D01*
X129271097Y-38614537D01*
X129271090Y-38614536D01*
X129000001Y-38595147D01*
X128999999Y-38595147D01*
X128728909Y-38614536D01*
X128728902Y-38614537D01*
X128463345Y-38672305D01*
X128208693Y-38767285D01*
X128208689Y-38767287D01*
X127970164Y-38897532D01*
X127970156Y-38897537D01*
X127844875Y-38991321D01*
X127844874Y-38991322D01*
X128752511Y-39898958D01*
X128692110Y-39923978D01*
X128585649Y-39995112D01*
X128495112Y-40085649D01*
X128423978Y-40192110D01*
X128398958Y-40252510D01*
X127491322Y-39344874D01*
X127491321Y-39344875D01*
X127397537Y-39470156D01*
X127397532Y-39470164D01*
X127267287Y-39708689D01*
X127267285Y-39708693D01*
X127172305Y-39963345D01*
X127114537Y-40228902D01*
X127114536Y-40228909D01*
X127095147Y-40499998D01*
X125908500Y-40499998D01*
X125908500Y-39051362D01*
X125908499Y-39051345D01*
X125905157Y-39020270D01*
X125901989Y-38990799D01*
X125850889Y-38853796D01*
X125763261Y-38736739D01*
X125646204Y-38649111D01*
X125626439Y-38641739D01*
X125509203Y-38598011D01*
X125448654Y-38591500D01*
X125448638Y-38591500D01*
X122551362Y-38591500D01*
X122551345Y-38591500D01*
X122490797Y-38598011D01*
X122490795Y-38598011D01*
X122353795Y-38649111D01*
X122236739Y-38736739D01*
X122149111Y-38853795D01*
X122098011Y-38990795D01*
X122098011Y-38990797D01*
X122091500Y-39051345D01*
X118000000Y-39051345D01*
X118000000Y-36124000D01*
X118019685Y-36056961D01*
X118072489Y-36011206D01*
X118124000Y-36000000D01*
X148876000Y-36000000D01*
X148943039Y-36019685D01*
G37*
G04 #@! TD.AperFunction*
M02*
