G04 #@! TF.GenerationSoftware,KiCad,Pcbnew,8.0.6*
G04 #@! TF.CreationDate,2024-10-26T17:03:45+02:00*
G04 #@! TF.ProjectId,LED_shield,4c45445f-7368-4696-956c-642e6b696361,rev?*
G04 #@! TF.SameCoordinates,Original*
G04 #@! TF.FileFunction,Copper,L1,Top*
G04 #@! TF.FilePolarity,Positive*
%FSLAX46Y46*%
G04 Gerber Fmt 4.6, Leading zero omitted, Abs format (unit mm)*
G04 Created by KiCad (PCBNEW 8.0.6) date 2024-10-26 17:03:45*
%MOMM*%
%LPD*%
G01*
G04 APERTURE LIST*
G04 #@! TA.AperFunction,ComponentPad*
%ADD10R,2.800000X2.800000*%
G04 #@! TD*
G04 #@! TA.AperFunction,ComponentPad*
%ADD11C,2.800000*%
G04 #@! TD*
G04 #@! TA.AperFunction,ComponentPad*
%ADD12R,1.700000X1.700000*%
G04 #@! TD*
G04 #@! TA.AperFunction,ComponentPad*
%ADD13O,1.700000X1.700000*%
G04 #@! TD*
G04 #@! TA.AperFunction,ComponentPad*
%ADD14R,1.905000X2.000000*%
G04 #@! TD*
G04 #@! TA.AperFunction,ComponentPad*
%ADD15O,1.905000X2.000000*%
G04 #@! TD*
G04 #@! TA.AperFunction,ComponentPad*
%ADD16C,1.600000*%
G04 #@! TD*
G04 #@! TA.AperFunction,ComponentPad*
%ADD17R,1.800000X1.800000*%
G04 #@! TD*
G04 #@! TA.AperFunction,ComponentPad*
%ADD18C,1.800000*%
G04 #@! TD*
G04 #@! TA.AperFunction,ComponentPad*
%ADD19O,2.400000X2.400000*%
G04 #@! TD*
G04 #@! TA.AperFunction,ComponentPad*
%ADD20C,2.400000*%
G04 #@! TD*
G04 #@! TA.AperFunction,Conductor*
%ADD21C,0.500000*%
G04 #@! TD*
G04 #@! TA.AperFunction,Conductor*
%ADD22C,0.400000*%
G04 #@! TD*
G04 #@! TA.AperFunction,Conductor*
%ADD23C,0.250000*%
G04 #@! TD*
G04 APERTURE END LIST*
D10*
X124000000Y-40500000D03*
D11*
X129000000Y-40500000D03*
D10*
X142750000Y-40405000D03*
D11*
X137750000Y-40405000D03*
D12*
X147500000Y-53000000D03*
D13*
X147500000Y-55540000D03*
X147500000Y-58080000D03*
X147500000Y-60620000D03*
X147500000Y-63160000D03*
X147500000Y-65700000D03*
X147500000Y-68240000D03*
X147500000Y-70780000D03*
X147500000Y-73320000D03*
X147500000Y-75860000D03*
D14*
X137960000Y-82945000D03*
D15*
X140500000Y-82945000D03*
X143040000Y-82945000D03*
D12*
X119500000Y-53000000D03*
D13*
X119500000Y-55540000D03*
X119500000Y-58080000D03*
X119500000Y-60620000D03*
X119500000Y-63160000D03*
X119500000Y-65700000D03*
X119500000Y-68240000D03*
X119500000Y-70780000D03*
X119500000Y-73320000D03*
X119500000Y-75860000D03*
D16*
X142500000Y-75500000D03*
X142500000Y-70500000D03*
D17*
X131275000Y-69500000D03*
D18*
X128735000Y-69500000D03*
D16*
X137500000Y-75500000D03*
X137500000Y-70500000D03*
D19*
X142500000Y-58000000D03*
D20*
X127260000Y-58000000D03*
D21*
X142500000Y-75500000D02*
X142500000Y-82405000D01*
X142500000Y-82405000D02*
X143040000Y-82945000D01*
X137420000Y-81000000D02*
X137500000Y-81000000D01*
X137500000Y-82485000D02*
X137960000Y-82945000D01*
X137500000Y-81000000D02*
X137500000Y-82485000D01*
D22*
X127260000Y-58000000D02*
X127260000Y-68025000D01*
X127260000Y-68025000D02*
X128735000Y-69500000D01*
D21*
X137500000Y-75500000D02*
X139883883Y-73116117D01*
X139883883Y-73116117D02*
X139883883Y-68883883D01*
X139883883Y-68883883D02*
X134000000Y-63000000D01*
X134000000Y-63000000D02*
X134000000Y-53500000D01*
X134000000Y-53500000D02*
X128285000Y-47785000D01*
X128285000Y-47785000D02*
X128285000Y-44785000D01*
X128285000Y-44785000D02*
X124000000Y-40500000D01*
X142750000Y-40405000D02*
X140475000Y-42680000D01*
X140475000Y-42680000D02*
X140475000Y-49025000D01*
X140475000Y-49025000D02*
X139000000Y-50500000D01*
X139000000Y-50500000D02*
X139000000Y-63500000D01*
X139000000Y-63500000D02*
X144500000Y-69000000D01*
X144500000Y-69000000D02*
X144500000Y-73500000D01*
X144500000Y-73500000D02*
X142500000Y-75500000D01*
D23*
X142080000Y-58080000D02*
X142000000Y-58000000D01*
D22*
X147500000Y-58080000D02*
X142080000Y-58080000D01*
D21*
X137420000Y-81000000D02*
X137420000Y-75580000D01*
D23*
X137420000Y-75580000D02*
X137500000Y-75500000D01*
M02*
